# xmcd
# Track frame offsets:
# 150
# 12945
# 25873
# 37490
# 51231
# 64558
# 77380
# 91043
# 105275
# 120138
# 133742
# 145664
# 156603
# 167851
#
# Disc length: 2434 seconds
# Revision: 0
# Processed by: cddbd v1.4PL0 Copyright (c) Steve Scherf et al.
# Submitted via: VisiTrax 2.9.5.181 - For more info visit www.synapsa.com
#
DISCID=ac09800e
DTITLE=Södergatan Blues Band - Pony Tail
DYEAR=2002
DGENRE=Blues
TTITLE0=Date bait
TTITLE1=I love you baby
TTITLE2=You got me
TTITLE3=Poor boy
TTITLE4=Got to let you go
TTITLE5=Trying to make a living
TTITLE6=Alimony blues
TTITLE7=Suger coated love
TTITLE8=Natchej burning
TTITLE9=Keyhole in your door
TTITLE10=She´s in to something
TTITLE11=Pony tail
TTITLE12=I want to be loved
TTITLE13=Poison Ivy
EXTD=
EXTT0=
EXTT1=
EXTT2=
EXTT3=
EXTT4=
EXTT5=
EXTT6=
EXTT7=
EXTT8=
EXTT9=
EXTT10=
EXTT11=
EXTT12=
EXTT13=
PLAYORDER=
